<svg width="219" height="90" viewBox="0 0 219 90" fill="none" xmlns="http://www.w3.org/2000/svg">
<rect x="35" y="13" width="149" height="66" rx="10" fill="#1E1C21"/>
<path d="M125.556 30.5557H94.4444C93.855 30.5557 93.2898 30.7898 92.873 31.2065C92.4563 31.6233 92.2222 32.1885 92.2222 32.7779V57.2223C92.2222 57.8117 92.4563 58.3769 92.873 58.7937C93.2898 59.2104 93.855 59.4446 94.4444 59.4446H125.556C126.145 59.4446 126.71 59.2104 127.127 58.7937C127.544 58.3769 127.778 57.8117 127.778 57.2223V32.7779C127.778 32.1885 127.544 31.6233 127.127 31.2065C126.71 30.7898 126.145 30.5557 125.556 30.5557ZM115.067 53.8223L107.178 42.0668L100.133 52.3779L95.1333 47.9334L96.6666 46.1668L99.6666 48.8223L107.178 37.8446L115.167 49.7446L122.944 39.4446L124.833 40.8668L115.067 53.8223Z" fill="#E9ECEF"/>
</svg>
