<svg width="219" height="129" viewBox="0 0 219 129" fill="none" xmlns="http://www.w3.org/2000/svg">
<rect x="35" y="13" width="149" height="66" rx="10" fill="#1E1C21"/>
<path d="M125.556 30.5557H94.4444C93.855 30.5557 93.2898 30.7898 92.873 31.2065C92.4563 31.6233 92.2222 32.1885 92.2222 32.7779V57.2223C92.2222 57.8117 92.4563 58.3769 92.873 58.7937C93.2898 59.2104 93.855 59.4446 94.4444 59.4446H125.556C126.145 59.4446 126.71 59.2104 127.127 58.7937C127.544 58.3769 127.778 57.8117 127.778 57.2223V32.7779C127.778 32.1885 127.544 31.6233 127.127 31.2065C126.71 30.7898 126.145 30.5557 125.556 30.5557ZM115.067 53.8223L107.178 42.0668L100.133 52.3779L95.1333 47.9334L96.6666 46.1668L99.6666 48.8223L107.178 37.8446L115.167 49.7446L122.944 39.4446L124.833 40.8668L115.067 53.8223Z" fill="#E9ECEF"/>
<rect x="20" y="79" width="179" height="50" rx="25" fill="#E9ECEF" fill-opacity="0.5"/>
<path d="M65.4 111L64.06 107.44H58.06L56.74 111H54.2L59.72 96.82H62.5L68.02 111H65.4ZM61.06 99.42L58.9 105.22H63.22L61.06 99.42ZM81.8188 111H79.3188L72.3188 100.26V111H69.9188V96.82H72.9788L79.4188 106.88V96.82H81.8188V111ZM94.9117 111L93.5717 107.44H87.5717L86.2517 111H83.7117L89.2317 96.82H92.0117L97.5317 111H94.9117ZM90.5717 99.42L88.4117 105.22H92.7317L90.5717 99.42ZM108.33 111H99.4305V96.82H101.83V108.72H108.33V111ZM112.617 105L107.657 96.82H110.497L113.897 102.76L117.317 96.82H120.017L115.017 105V111H112.617V105ZM132.482 99.08H127.862V111H125.462V99.08H120.862V96.82H132.482V99.08ZM136.89 111H134.45V96.82H136.89V111ZM146.59 111.3C144.603 111.3 142.91 110.627 141.51 109.28C140.123 107.933 139.43 106.147 139.43 103.92C139.43 101.707 140.137 99.92 141.55 98.56C142.963 97.2 144.637 96.52 146.57 96.52C148.277 96.52 149.677 96.9533 150.77 97.82C151.877 98.6867 152.603 99.7867 152.95 101.12L150.69 101.88C150.463 100.96 150.003 100.213 149.31 99.64C148.617 99.0667 147.703 98.78 146.57 98.78C145.303 98.78 144.203 99.2333 143.27 100.14C142.35 101.033 141.89 102.293 141.89 103.92C141.89 105.507 142.35 106.753 143.27 107.66C144.19 108.553 145.297 109 146.59 109C147.697 109 148.61 108.7 149.33 108.1C150.05 107.5 150.543 106.76 150.81 105.88L153.01 106.6C152.663 107.92 151.93 109.033 150.81 109.94C149.703 110.847 148.297 111.3 146.59 111.3ZM164.766 100.14L162.606 100.82C162.513 100.273 162.239 99.7733 161.786 99.32C161.333 98.8667 160.679 98.64 159.826 98.64C159.119 98.64 158.533 98.84 158.066 99.24C157.613 99.64 157.386 100.12 157.386 100.68C157.386 101.653 157.939 102.26 159.046 102.5L161.086 102.92C162.313 103.16 163.259 103.647 163.926 104.38C164.593 105.113 164.926 105.987 164.926 107C164.926 108.173 164.473 109.187 163.566 110.04C162.673 110.88 161.453 111.3 159.906 111.3C158.239 111.3 156.939 110.867 156.006 110C155.073 109.12 154.546 108.1 154.426 106.94L156.666 106.3C156.746 107.1 157.066 107.773 157.626 108.32C158.186 108.867 158.946 109.14 159.906 109.14C160.733 109.14 161.366 108.96 161.806 108.6C162.259 108.227 162.486 107.753 162.486 107.18C162.486 106.713 162.319 106.313 161.986 105.98C161.653 105.633 161.186 105.393 160.586 105.26L158.586 104.84C157.479 104.613 156.599 104.153 155.946 103.46C155.306 102.767 154.986 101.9 154.986 100.86C154.986 99.6733 155.459 98.6533 156.406 97.8C157.353 96.9467 158.486 96.52 159.806 96.52C161.313 96.52 162.466 96.8867 163.266 97.62C164.066 98.34 164.566 99.18 164.766 100.14Z" fill="#ADB5BD"/>
</svg>
