<svg width="219" height="129" viewBox="0 0 219 129" fill="none" xmlns="http://www.w3.org/2000/svg">
<path d="M125.556 30.5557H94.4444C93.855 30.5557 93.2898 30.7898 92.873 31.2065C92.4563 31.6233 92.2222 32.1885 92.2222 32.7779V57.2223C92.2222 57.8117 92.4563 58.3769 92.873 58.7937C93.2898 59.2104 93.855 59.4446 94.4444 59.4446H125.556C126.145 59.4446 126.71 59.2104 127.127 58.7937C127.544 58.3769 127.778 57.8117 127.778 57.2223V32.7779C127.778 32.1885 127.544 31.6233 127.127 31.2065C126.71 30.7898 126.145 30.5557 125.556 30.5557ZM115.067 53.8223L107.178 42.0668L100.133 52.3779L95.1333 47.9334L96.6666 46.1668L99.6666 48.8223L107.178 37.8446L115.167 49.7446L122.944 39.4446L124.833 40.8668L115.067 53.8223Z" fill="#1E1C21"/>
<rect x="20" y="79" width="179" height="50" rx="25" fill="#E9ECEF" fill-opacity="0.5"/>
<path d="M65.4 113L64.06 109.44H58.06L56.74 113H54.2L59.72 98.82H62.5L68.02 113H65.4ZM61.06 101.42L58.9 107.22H63.22L61.06 101.42ZM81.8188 113H79.3188L72.3188 102.26V113H69.9188V98.82H72.9788L79.4188 108.88V98.82H81.8188V113ZM94.9117 113L93.5717 109.44H87.5717L86.2517 113H83.7117L89.2317 98.82H92.0117L97.5317 113H94.9117ZM90.5717 101.42L88.4117 107.22H92.7317L90.5717 101.42ZM108.33 113H99.4305V98.82H101.83V110.72H108.33V113ZM112.617 107L107.657 98.82H110.497L113.897 104.76L117.317 98.82H120.017L115.017 107V113H112.617V107ZM132.482 101.08H127.862V113H125.462V101.08H120.862V98.82H132.482V101.08ZM136.89 113H134.45V98.82H136.89V113ZM146.59 113.3C144.603 113.3 142.91 112.627 141.51 111.28C140.123 109.933 139.43 108.147 139.43 105.92C139.43 103.707 140.137 101.92 141.55 100.56C142.963 99.2 144.637 98.52 146.57 98.52C148.277 98.52 149.677 98.9533 150.77 99.82C151.877 100.687 152.603 101.787 152.95 103.12L150.69 103.88C150.463 102.96 150.003 102.213 149.31 101.64C148.617 101.067 147.703 100.78 146.57 100.78C145.303 100.78 144.203 101.233 143.27 102.14C142.35 103.033 141.89 104.293 141.89 105.92C141.89 107.507 142.35 108.753 143.27 109.66C144.19 110.553 145.297 111 146.59 111C147.697 111 148.61 110.7 149.33 110.1C150.05 109.5 150.543 108.76 150.81 107.88L153.01 108.6C152.663 109.92 151.93 111.033 150.81 111.94C149.703 112.847 148.297 113.3 146.59 113.3ZM164.766 102.14L162.606 102.82C162.513 102.273 162.239 101.773 161.786 101.32C161.333 100.867 160.679 100.64 159.826 100.64C159.119 100.64 158.533 100.84 158.066 101.24C157.613 101.64 157.386 102.12 157.386 102.68C157.386 103.653 157.939 104.26 159.046 104.5L161.086 104.92C162.313 105.16 163.259 105.647 163.926 106.38C164.593 107.113 164.926 107.987 164.926 109C164.926 110.173 164.473 111.187 163.566 112.04C162.673 112.88 161.453 113.3 159.906 113.3C158.239 113.3 156.939 112.867 156.006 112C155.073 111.12 154.546 110.1 154.426 108.94L156.666 108.3C156.746 109.1 157.066 109.773 157.626 110.32C158.186 110.867 158.946 111.14 159.906 111.14C160.733 111.14 161.366 110.96 161.806 110.6C162.259 110.227 162.486 109.753 162.486 109.18C162.486 108.713 162.319 108.313 161.986 107.98C161.653 107.633 161.186 107.393 160.586 107.26L158.586 106.84C157.479 106.613 156.599 106.153 155.946 105.46C155.306 104.767 154.986 103.9 154.986 102.86C154.986 101.673 155.459 100.653 156.406 99.8C157.353 98.9467 158.486 98.52 159.806 98.52C161.313 98.52 162.466 98.8867 163.266 99.62C164.066 100.34 164.566 101.18 164.766 102.14Z" fill="#ADB5BD"/>
</svg>
