<svg width="219" height="129" viewBox="0 0 219 129" fill="none" xmlns="http://www.w3.org/2000/svg">
<g clip-path="url(#clip0_1292_4686)">
<g filter="url(#filter0_d_1292_4686)">
<path d="M125.556 30.5557H94.4444C93.855 30.5557 93.2898 30.7898 92.873 31.2065C92.4563 31.6233 92.2222 32.1885 92.2222 32.7779V57.2223C92.2222 57.8117 92.4563 58.3769 92.873 58.7937C93.2898 59.2104 93.855 59.4446 94.4444 59.4446H125.556C126.145 59.4446 126.71 59.2104 127.127 58.7937C127.544 58.3769 127.778 57.8117 127.778 57.2223V32.7779C127.778 32.1885 127.544 31.6233 127.127 31.2065C126.71 30.7898 126.145 30.5557 125.556 30.5557ZM115.067 53.8223L107.178 42.0668L100.133 52.3779L95.1333 47.9334L96.6666 46.1668L99.6666 48.8223L107.178 37.8446L115.167 49.7446L122.944 39.4446L124.833 40.8668L115.067 53.8223Z" fill="#1E1C21"/>
</g>
</g>
<rect x="20" y="79" width="179" height="50" rx="25" fill="#E9ECEF" fill-opacity="0.5"/>
<path d="M65.4 116L64.06 112.44H58.06L56.74 116H54.2L59.72 101.82H62.5L68.02 116H65.4ZM61.06 104.42L58.9 110.22H63.22L61.06 104.42ZM81.8188 116H79.3188L72.3188 105.26V116H69.9188V101.82H72.9788L79.4188 111.88V101.82H81.8188V116ZM94.9117 116L93.5717 112.44H87.5717L86.2517 116H83.7117L89.2317 101.82H92.0117L97.5317 116H94.9117ZM90.5717 104.42L88.4117 110.22H92.7317L90.5717 104.42ZM108.33 116H99.4305V101.82H101.83V113.72H108.33V116ZM112.617 110L107.657 101.82H110.497L113.897 107.76L117.317 101.82H120.017L115.017 110V116H112.617V110ZM132.482 104.08H127.862V116H125.462V104.08H120.862V101.82H132.482V104.08ZM136.89 116H134.45V101.82H136.89V116ZM146.59 116.3C144.603 116.3 142.91 115.627 141.51 114.28C140.123 112.933 139.43 111.147 139.43 108.92C139.43 106.707 140.137 104.92 141.55 103.56C142.963 102.2 144.637 101.52 146.57 101.52C148.277 101.52 149.677 101.953 150.77 102.82C151.877 103.687 152.603 104.787 152.95 106.12L150.69 106.88C150.463 105.96 150.003 105.213 149.31 104.64C148.617 104.067 147.703 103.78 146.57 103.78C145.303 103.78 144.203 104.233 143.27 105.14C142.35 106.033 141.89 107.293 141.89 108.92C141.89 110.507 142.35 111.753 143.27 112.66C144.19 113.553 145.297 114 146.59 114C147.697 114 148.61 113.7 149.33 113.1C150.05 112.5 150.543 111.76 150.81 110.88L153.01 111.6C152.663 112.92 151.93 114.033 150.81 114.94C149.703 115.847 148.297 116.3 146.59 116.3ZM164.766 105.14L162.606 105.82C162.513 105.273 162.239 104.773 161.786 104.32C161.333 103.867 160.679 103.64 159.826 103.64C159.119 103.64 158.533 103.84 158.066 104.24C157.613 104.64 157.386 105.12 157.386 105.68C157.386 106.653 157.939 107.26 159.046 107.5L161.086 107.92C162.313 108.16 163.259 108.647 163.926 109.38C164.593 110.113 164.926 110.987 164.926 112C164.926 113.173 164.473 114.187 163.566 115.04C162.673 115.88 161.453 116.3 159.906 116.3C158.239 116.3 156.939 115.867 156.006 115C155.073 114.12 154.546 113.1 154.426 111.94L156.666 111.3C156.746 112.1 157.066 112.773 157.626 113.32C158.186 113.867 158.946 114.14 159.906 114.14C160.733 114.14 161.366 113.96 161.806 113.6C162.259 113.227 162.486 112.753 162.486 112.18C162.486 111.713 162.319 111.313 161.986 110.98C161.653 110.633 161.186 110.393 160.586 110.26L158.586 109.84C157.479 109.613 156.599 109.153 155.946 108.46C155.306 107.767 154.986 106.9 154.986 105.86C154.986 104.673 155.459 103.653 156.406 102.8C157.353 101.947 158.486 101.52 159.806 101.52C161.313 101.52 162.466 101.887 163.266 102.62C164.066 103.34 164.566 104.18 164.766 105.14Z" fill="#1E1C21"/>
<defs>
<filter id="filter0_d_1292_4686" x="84.2222" y="22.5557" width="51.5557" height="44.8887" filterUnits="userSpaceOnUse" color-interpolation-filters="sRGB">
<feFlood flood-opacity="0" result="BackgroundImageFix"/>
<feColorMatrix in="SourceAlpha" type="matrix" values="0 0 0 0 0 0 0 0 0 0 0 0 0 0 0 0 0 0 127 0" result="hardAlpha"/>
<feOffset/>
<feGaussianBlur stdDeviation="4"/>
<feComposite in2="hardAlpha" operator="out"/>
<feColorMatrix type="matrix" values="0 0 0 0 0 0 0 0 0 0 0 0 0 0 0 0 0 0 0.5 0"/>
<feBlend mode="normal" in2="BackgroundImageFix" result="effect1_dropShadow_1292_4686"/>
<feBlend mode="normal" in="SourceGraphic" in2="effect1_dropShadow_1292_4686" result="shape"/>
</filter>
<clipPath id="clip0_1292_4686">
<rect width="40" height="40" fill="white" transform="translate(90 25)"/>
</clipPath>
</defs>
</svg>
