<svg width="219" height="129" viewBox="0 0 219 129" fill="none" xmlns="http://www.w3.org/2000/svg">
<rect x="34" y="12" width="149" height="66" rx="10" fill="#1E1C21"/>
<path d="M125.667 46.1111C125.521 46.1119 125.376 46.0839 125.24 46.0286C125.105 45.9733 124.982 45.8918 124.878 45.7889L109 29.9L93.1224 45.7889C92.9099 45.9709 92.6364 46.066 92.3568 46.0552C92.0772 46.0444 91.8119 45.9285 91.614 45.7306C91.4161 45.5327 91.3002 45.2674 91.2894 44.9878C91.2786 44.7082 91.3737 44.4347 91.5557 44.2222L108.222 27.5555C108.431 27.3486 108.712 27.2324 109.006 27.2324C109.299 27.2324 109.581 27.3486 109.789 27.5555L126.456 44.2222C126.609 44.3782 126.712 44.5758 126.753 44.7903C126.795 45.0047 126.772 45.2266 126.688 45.4282C126.603 45.6297 126.462 45.802 126.28 45.9235C126.099 46.0449 125.885 46.1102 125.667 46.1111Z" fill="#E9ECEF"/>
<path d="M109 33.6558L95.6665 47.0335V60.5558C95.6665 61.1451 95.9006 61.7104 96.3174 62.1271C96.7341 62.5439 97.2994 62.778 97.8887 62.778H105.667V51.6669H112.333V62.778H120.111C120.7 62.778 121.266 62.5439 121.682 62.1271C122.099 61.7104 122.333 61.1451 122.333 60.5558V46.9558L109 33.6558Z" fill="#E9ECEF"/>
<rect x="20" y="79" width="179" height="50" rx="25" fill="#E9ECEF" fill-opacity="0.5"/>
<path d="M91.18 113H88.76V106.94H82.1V113H79.7V98.82H82.1V104.68H88.76V98.82H91.18V113ZM97.5828 102.14C96.6495 103.033 96.1828 104.287 96.1828 105.9C96.1828 107.513 96.6495 108.773 97.5828 109.68C98.5161 110.573 99.6295 111.02 100.923 111.02C102.216 111.02 103.329 110.573 104.263 109.68C105.209 108.773 105.683 107.513 105.683 105.9C105.683 104.287 105.209 103.033 104.263 102.14C103.329 101.233 102.216 100.78 100.923 100.78C99.6295 100.78 98.5161 101.233 97.5828 102.14ZM94.7428 109.86C94.0628 108.713 93.7228 107.393 93.7228 105.9C93.7228 104.407 94.0628 103.093 94.7428 101.96C95.4361 100.813 96.3228 99.9533 97.4028 99.38C98.4828 98.8067 99.6561 98.52 100.923 98.52C102.189 98.52 103.363 98.8067 104.443 99.38C105.523 99.9533 106.409 100.813 107.103 101.96C107.796 103.093 108.143 104.407 108.143 105.9C108.143 107.393 107.796 108.713 107.103 109.86C106.409 111.007 105.523 111.867 104.443 112.44C103.363 113.013 102.189 113.3 100.923 113.3C99.6561 113.3 98.4828 113.013 97.4028 112.44C96.3228 111.867 95.4361 111.007 94.7428 109.86ZM126.277 113H123.897V102.56L119.477 113H117.397L113.017 102.6V113H110.677V98.82H113.877L118.477 109.64L123.017 98.82H126.277V113ZM138.44 113H129.68V98.82H138.44V101.06H132.08V104.82H137.84V107H132.08V110.76H138.44V113Z" fill="#ADB5BD"/>
</svg>
