<svg width="219" height="90" viewBox="0 0 219 90" fill="none" xmlns="http://www.w3.org/2000/svg">
<rect x="35" y="12" width="149" height="66" rx="10" fill="#1E1C21"/>
<path d="M125.667 46.1111C125.521 46.1119 125.376 46.0839 125.24 46.0286C125.105 45.9733 124.982 45.8918 124.878 45.7889L109 29.9L93.1224 45.7889C92.9099 45.9709 92.6364 46.066 92.3568 46.0552C92.0772 46.0444 91.8119 45.9285 91.614 45.7306C91.4161 45.5327 91.3002 45.2674 91.2894 44.9878C91.2786 44.7082 91.3737 44.4347 91.5557 44.2222L108.222 27.5555C108.431 27.3486 108.712 27.2324 109.006 27.2324C109.299 27.2324 109.581 27.3486 109.789 27.5555L126.456 44.2222C126.609 44.3782 126.712 44.5758 126.753 44.7903C126.795 45.0047 126.772 45.2266 126.688 45.4282C126.603 45.6297 126.462 45.802 126.28 45.9235C126.099 46.0449 125.885 46.1102 125.667 46.1111Z" fill="#E9ECEF"/>
<path d="M109 33.6558L95.6665 47.0335V60.5558C95.6665 61.1451 95.9006 61.7104 96.3174 62.1271C96.7341 62.5439 97.2994 62.778 97.8887 62.778H105.667V51.6669H112.333V62.778H120.111C120.7 62.778 121.266 62.5439 121.682 62.1271C122.099 61.7104 122.333 61.1451 122.333 60.5558V46.9558L109 33.6558Z" fill="#E9ECEF"/>
</svg>
