<svg width="219" height="129" viewBox="0 0 219 129" fill="none" xmlns="http://www.w3.org/2000/svg">
<g clip-path="url(#clip0_1292_4701)">
<g filter="url(#filter0_d_1292_4701)">
<path d="M125.667 46.1111C125.521 46.1119 125.376 46.0839 125.24 46.0286C125.105 45.9733 124.982 45.8918 124.878 45.7889L109 29.9L93.1224 45.7889C92.9099 45.9709 92.6364 46.066 92.3568 46.0552C92.0772 46.0444 91.8119 45.9285 91.614 45.7306C91.4161 45.5327 91.3002 45.2674 91.2894 44.9878C91.2786 44.7082 91.3737 44.4347 91.5557 44.2222L108.222 27.5555C108.431 27.3486 108.712 27.2324 109.006 27.2324C109.299 27.2324 109.581 27.3486 109.789 27.5555L126.456 44.2222C126.609 44.3782 126.712 44.5758 126.753 44.7903C126.795 45.0047 126.772 45.2266 126.688 45.4282C126.603 45.6297 126.462 45.802 126.28 45.9235C126.099 46.0449 125.885 46.1102 125.667 46.1111Z" fill="#1E1C21"/>
</g>
<path d="M109 33.6558L95.6665 47.0335V60.5558C95.6665 61.1451 95.9006 61.7104 96.3174 62.1271C96.7341 62.5439 97.2994 62.778 97.8887 62.778H105.667V51.6669H112.333V62.778H120.111C120.7 62.778 121.266 62.5439 121.682 62.1271C122.099 61.7104 122.333 61.1451 122.333 60.5558V46.9558L109 33.6558Z" fill="#1E1C21"/>
</g>
<rect x="20" y="79" width="179" height="50" rx="25" fill="#E9ECEF" fill-opacity="0.5"/>
<path d="M92.18 111H89.76V104.94H83.1V111H80.7V96.82H83.1V102.68H89.76V96.82H92.18V111ZM98.5828 100.14C97.6495 101.033 97.1828 102.287 97.1828 103.9C97.1828 105.513 97.6495 106.773 98.5828 107.68C99.5161 108.573 100.629 109.02 101.923 109.02C103.216 109.02 104.329 108.573 105.263 107.68C106.209 106.773 106.683 105.513 106.683 103.9C106.683 102.287 106.209 101.033 105.263 100.14C104.329 99.2333 103.216 98.78 101.923 98.78C100.629 98.78 99.5161 99.2333 98.5828 100.14ZM95.7428 107.86C95.0628 106.713 94.7228 105.393 94.7228 103.9C94.7228 102.407 95.0628 101.093 95.7428 99.96C96.4361 98.8133 97.3228 97.9533 98.4028 97.38C99.4828 96.8067 100.656 96.52 101.923 96.52C103.189 96.52 104.363 96.8067 105.443 97.38C106.523 97.9533 107.409 98.8133 108.103 99.96C108.796 101.093 109.143 102.407 109.143 103.9C109.143 105.393 108.796 106.713 108.103 107.86C107.409 109.007 106.523 109.867 105.443 110.44C104.363 111.013 103.189 111.3 101.923 111.3C100.656 111.3 99.4828 111.013 98.4028 110.44C97.3228 109.867 96.4361 109.007 95.7428 107.86ZM127.277 111H124.897V100.56L120.477 111H118.397L114.017 100.6V111H111.677V96.82H114.877L119.477 107.64L124.017 96.82H127.277V111ZM139.44 111H130.68V96.82H139.44V99.06H133.08V102.82H138.84V105H133.08V108.76H139.44V111Z" fill="#ADB5BD"/>
<defs>
<filter id="filter0_d_1292_4701" x="83.2886" y="19.2324" width="51.4849" height="34.8789" filterUnits="userSpaceOnUse" color-interpolation-filters="sRGB">
<feFlood flood-opacity="0" result="BackgroundImageFix"/>
<feColorMatrix in="SourceAlpha" type="matrix" values="0 0 0 0 0 0 0 0 0 0 0 0 0 0 0 0 0 0 127 0" result="hardAlpha"/>
<feOffset/>
<feGaussianBlur stdDeviation="4"/>
<feComposite in2="hardAlpha" operator="out"/>
<feColorMatrix type="matrix" values="0 0 0 0 0 0 0 0 0 0 0 0 0 0 0 0 0 0 0.5 0"/>
<feBlend mode="normal" in2="BackgroundImageFix" result="effect1_dropShadow_1292_4701"/>
<feBlend mode="normal" in="SourceGraphic" in2="effect1_dropShadow_1292_4701" result="shape"/>
</filter>
<clipPath id="clip0_1292_4701">
<rect width="40" height="40" fill="white" transform="translate(89 25)"/>
</clipPath>
</defs>
</svg>
