<svg width="219" height="129" viewBox="0 0 219 129" fill="none" xmlns="http://www.w3.org/2000/svg">
<path d="M94.9998 40H91.6665V58.3333C91.6665 60.1833 93.1498 61.6667 94.9998 61.6667H121.667V58.3333H94.9998V40Z" fill="#1E1C21"/>
<path d="M120 33.3332V29.9998C120 28.1498 118.517 26.6665 116.667 26.6665H110C108.15 26.6665 106.667 28.1498 106.667 29.9998V33.3332H98.3335V51.6665C98.3335 53.5165 99.8168 54.9998 101.667 54.9998H125C126.85 54.9998 128.333 53.5165 128.333 51.6665V33.3332H120ZM110 29.9998H116.667V33.3332H110V29.9998ZM110 49.9998V38.3332L119.167 44.1665L110 49.9998Z" fill="#1E1C21"/>
<rect x="20" y="79" width="179" height="50" rx="25" fill="#E9ECEF" fill-opacity="0.5"/>
<path d="M85.3 111H82.92V100.56L78.5 111H76.42L72.04 100.6V111H69.7V96.82H72.9L77.5 107.64L82.04 96.82H85.3V111ZM98.4039 111L97.0639 107.44H91.0639L89.7439 111H87.2039L92.7239 96.82H95.5039L101.024 111H98.4039ZM94.0639 99.42L91.9039 105.22H96.2239L94.0639 99.42ZM110.083 111L107.103 105.4H105.343V111H102.923V96.82H108.363C109.696 96.82 110.769 97.2333 111.583 98.06C112.396 98.8733 112.803 99.8933 112.803 101.12C112.803 102.133 112.516 103 111.943 103.72C111.369 104.44 110.589 104.92 109.603 105.16L112.803 111H110.083ZM105.343 103.28H107.923C108.656 103.28 109.243 103.087 109.683 102.7C110.136 102.3 110.363 101.773 110.363 101.12C110.363 100.453 110.136 99.9267 109.683 99.54C109.243 99.14 108.656 98.94 107.923 98.94H105.343V103.28ZM124.064 111L119.644 104.86L117.764 106.92V111H115.364V96.82H117.764V103.62L123.864 96.82H127.024L121.284 103.08L127.084 111H124.064ZM137.815 111H129.055V96.82H137.815V99.06H131.455V102.82H137.215V105H131.455V108.76H137.815V111ZM151.013 99.08H146.393V111H143.993V99.08H139.393V96.82H151.013V99.08Z" fill="#ADB5BD"/>
</svg>
