<svg width="219" height="90" viewBox="0 0 219 90" fill="none" xmlns="http://www.w3.org/2000/svg">
<rect x="38" y="12" width="149" height="66" rx="10" fill="#1E1C21"/>
<path d="M94.9998 40H91.6665V58.3333C91.6665 60.1833 93.1498 61.6667 94.9998 61.6667H121.667V58.3333H94.9998V40Z" fill="#E9ECEF"/>
<path d="M120 33.3332V29.9998C120 28.1498 118.517 26.6665 116.667 26.6665H110C108.15 26.6665 106.667 28.1498 106.667 29.9998V33.3332H98.3335V51.6665C98.3335 53.5165 99.8168 54.9998 101.667 54.9998H125C126.85 54.9998 128.333 53.5165 128.333 51.6665V33.3332H120ZM110 29.9998H116.667V33.3332H110V29.9998ZM110 49.9998V38.3332L119.167 44.1665L110 49.9998Z" fill="#E9ECEF"/>
</svg>
